# xmcd CD database file
#
# Track frame offsets:
#	150
#	20055
#	44030
#	65390
#	84049
#	105563
#	126884
#	142684
#	166158
#	195196
#	219503
#
# Disc length: 3182 seconds
#
# Revision: 3
# Processed by: cddbd v1.5PL3 Copyright (c) Steve Scherf et al.
# Submitted via: CDex 1.51
#
DISCID=890c6c0b
DTITLE=Nightwish - Oceanborn
DYEAR=1998
DGENRE=Metal
TTITLE0=Stargazers
TTITLE1=Gethsemane
TTITLE2=Devil and The Deep Dark Ocean
TTITLE3=Sacrament Of Wilderness
TTITLE4=Passion And The Opera
TTITLE5=Swanheart
TTITLE6=Moondance
TTITLE7=The Riddler
TTITLE8=The Pharaoh Sails To Orion
TTITLE9=Walking In The Air
TTITLE10=Night Quest
EXTD=YEAR: 1998
EXTT0=
EXTT1=
EXTT2=
EXTT3=
EXTT4=
EXTT5=
EXTT6=
EXTT7=
EXTT8=
EXTT9=
EXTT10=
PLAYORDER=
